{"title":"syfy original ZODIAC - SIGNS OF THE APOCALYPSE 2014 tvrip_jb","uid":10798477,"size":707551570,"categoryP":"video","categoryS":"movies","magnet":"?xt=urn:btih:66325946f6d4edeba20f70b2ccc2011cc6af98e0&amp;dn=syfy+original+ZODIAC+-+SIGNS+OF+THE+APOCALYPSE+2014+tvrip_jb&amp;tr=udp%3A%2F%2Ftracker.openbittorrent.com%3A80&amp;tr=udp%3A%2F%2Fopen.demonii.com%3A1337&amp;tr=udp%3A%2F%2Ftracker.coppersurfer.tk%3A6969&amp;tr=udp%3A%2F%2Fexodus.desync.com%3A6969","seeders":4,"leechers":0,"uploader":"xxxlavalxxx","files":-1,"time":1408314476,"description":"[IMG]http://i.imgur.com/azbPAnT.jpg[/IMG]\n\n &lt;a href=&quot;\nhttp://www.imdb.com/title/tt3102206/&quot; rel=&quot;nofollow&quot; target=&quot;_NEW&quot;&gt;\nhttp://www.imdb.com/title/tt3102206/&lt;/a&gt;\n\n\nWhen a mysterious planet crosses the sun, global catastrophes are unleashed. A rogue scientist is the key to deciphering the symbols and humanity's only chance at survival.\n\nDirector: W.D. Hogan\nWriter: David Sanderson\nStars: Christopher Lloyd, Joel Gretsch, Reilly Dolman\nGenres: Sci-Fi\nCountry: Canada\nLanguage: English\n\n\nGeneral\nComplete name                            : syfy original ZODIAC - SIGNS OF THE APOCALYPSE 2014 tvrip_jb/syfy original ZODIAC - SIGNS OF THE APOCALYPSE 2014 tvrip_jb.avi\nFormat                                   : AVI\nFormat/Info                              : Audio Video Interleave\nFile size                                : 675 MiB\nDuration                                 : 1h 25mn\nOverall bit rate                         : 1 104 Kbps\nWriting application                      : FairUse Wizard - http://fairusewizard.com\nWriting library                          : The best and REALLY easy backup tool\n\nVideo\nID                                       : 0\nFormat                                   : MPEG-4 Visual\nFormat profile                           : Advanced Simple@L5\nFormat settings, BVOP                    : 1\nFormat settings, QPel                    : No\nFormat settings, GMC                     : No warppoints\nFormat settings, Matrix                  : Default (MPEG)\nMuxing mode                              : Packed bitstream\nCodec ID                                 : XVID\nCodec ID/Hint                            : XviD\nDuration                                 : 1h 25mn\nBit rate                                 : 900 Kbps\nWidth                                    : 624 pixels\nHeight                                   : 360 pixels\nDisplay aspect ratio                     : 16:9\nFrame rate                               : 29.970 fps\nColor space                              : YUV\nChroma subsampling                       : 4:2:0\nBit depth                                : 8 bits\nScan type                                : Progressive\nCompression mode                         : Lossy\nBits/(Pixel*Frame)                       : 0.134\nStream size                              : 550 MiB (82%)\nWriting library                          : XviD 1.2.1 (UTC 2008-12-04)\n\nAudio\nID                                       : 1\nFormat                                   : AC-3\nFormat/Info                              : Audio Coding 3\nMode extension                           : CM (complete main)\nCodec ID                                 : 2000\nDuration                                 : 1h 25mn\nBit rate mode                            : Constant\nBit rate                                 : 192 Kbps\nChannel(s)                               : 2 channels\nChannel positions                        : Front: L R\nSampling rate                            : 48.0 KHz\nBit depth                                : 16 bits\nCompression mode                         : Lossy\nStream size                              : 117 MiB (17%)\nAlignment                                : Split accross interleaves\nInterleave, duration                     : 33 ms (1.00 video frame)\nInterleave, preload duration             : 500 ms\n\n\n\nscreens\n &lt;a href=&quot;\nhttp://i.imgur.com/2H5wOe1.jpg&quot; rel=&quot;nofollow&quot; target=&quot;_NEW&quot;&gt;\nhttp://i.imgur.com/2H5wOe1.jpg&lt;/a&gt; &lt;a href=&quot;\nhttp://i.imgur.com/ZBpMYEM.jpg&quot; rel=&quot;nofollow&quot; target=&quot;_NEW&quot;&gt;\nhttp://i.imgur.com/ZBpMYEM.jpg&lt;/a&gt; &lt;a href=&quot;\nhttp://i.imgur.com/YfBmrqq.jpg&quot; rel=&quot;nofollow&quot; target=&quot;_NEW&quot;&gt;\nhttp://i.imgur.com/YfBmrqq.jpg&lt;/a&gt; &lt;a href=&quot;\nhttp://i.imgur.com/FAMVcWZ.jpg&quot; rel=&quot;nofollow&quot; target=&quot;_NEW&quot;&gt;\nhttp://i.imgur.com/FAMVcWZ.jpg&lt;/a&gt; &lt;a href=&quot;\nhttp://i.imgur.com/Hp9oGim.jpg&quot; rel=&quot;nofollow&quot; target=&quot;_NEW&quot;&gt;\nhttp://i.imgur.com/Hp9oGim.jpg&lt;/a&gt;","torrent":{"xt":"urn:btih:66325946f6d4edeba20f70b2ccc2011cc6af98e0","amp;dn":"syfy+original+ZODIAC+-+SIGNS+OF+THE+APOCALYPSE+2014+tvrip_jb","amp;tr":["udp%3A%2F%2Ftracker.openbittorrent.com%3A80","udp%3A%2F%2Fopen.demonii.com%3A1337","udp%3A%2F%2Ftracker.coppersurfer.tk%3A6969","udp%3A%2F%2Fexodus.desync.com%3A6969"],"infoHash":"66325946f6d4edeba20f70b2ccc2011cc6af98e0","infoHashBuffer":{"type":"Buffer","data":[102,50,89,70,246,212,237,235,162,15,112,178,204,194,1,28,198,175,152,224]},"announce":[],"urlList":[]}}